Coordinates
version=1
nRows=14
nColumns=36
inDegrees=yes

Units are S.I. units (second, meters, Newtons, ...)
If the header above contains a line with 'inDegrees', this indicates whether rotational values are in degrees (yes) or radians (no).

endheader
time	pelvis_tilt	pelvis_list	pelvis_rotation	pelvis_tx	pelvis_ty	pelvis_tz	hip_flexion_r	hip_adduction_r	hip_rotation_r	knee_angle_r	knee_angle_r_beta	ankle_angle_r	subtalar_angle_r	mtp_angle_r	hip_flexion_l	hip_adduction_l	hip_rotation_l	knee_angle_l	knee_angle_l_beta	ankle_angle_l	subtalar_angle_l	mtp_angle_l	lumbar_extension	lumbar_bending	lumbar_rotation	arm_flex_r	arm_add_r	arm_rot_r	elbow_flex_r	pro_sup_r	arm_flex_l	arm_add_l	arm_rot_l	elbow_flex_l	pro_sup_l
      1.99166670	     -4.59333102	     -0.53497547	      1.79749777	      0.39420297	      1.16610716	     -0.08025712	      3.94061770	     -1.29278843	     -9.61494081	      3.97314089	      0.06934439	    -49.50641535	     14.35891958	     -7.49999987	      7.29390624	     -2.56440929	      3.68241122	      9.27188862	      0.16182498	    -49.27525906	     15.58466683	     -7.49999987	     -2.26754060	      0.13679719	     -1.04706106	    -19.29629999	    -26.06139966	     11.39116610	     81.14539253	     77.76553859	    -16.90346033	    -25.74197876	     14.00796137	     69.40216063	     68.14993104
      1.99583330	     -4.56036604	     -0.63426112	      1.96785818	      0.39655154	      1.17003770	     -0.07844731	      3.76626803	     -1.09365346	     -8.63376262	      3.87324680	      0.06760091	    -49.47999772	     14.98374412	     -7.49999987	      7.27326550	     -2.80621655	      3.67310463	      9.73867567	      0.16997196	    -49.31259208	     15.49497676	     -7.49999987	     -2.11712230	      0.13395730	     -1.19642063	    -19.26299717	    -25.22318767	     11.57672340	     79.30687674	     77.95232857	    -16.76457639	    -25.29284041	     14.20113415	     68.05646648	     68.05299097
      2.00000000	     -4.67748321	     -0.57127657	      2.29714352	      0.39661896	      1.17669973	     -0.07887028	      3.71547523	     -1.06784675	     -8.26009745	      3.46993853	      0.06056185	    -49.47986322	     15.75961125	     -7.49999987	      7.54505738	     -2.83392099	      3.00438237	     10.34155806	      0.18049424	    -49.42132023	     15.16555226	     -7.49999987	     -1.74731424	     -0.01059103	     -1.43199957	    -19.11146239	    -24.31719627	     11.91809995	     77.24562594	     78.05289942	    -16.50237730	    -24.96083161	     14.40616924	     66.54814210	     67.90795078
      2.00416670	     -4.81381691	     -0.66581631	      2.54210147	      0.39902481	      1.18076196	     -0.07930721	      3.63859540	     -0.92422622	     -8.06492511	      3.11274341	      0.05432762	    -49.49307932	     16.34166656	     -7.49999987	      7.65600786	     -3.01823026	      2.12274093	     10.67946497	      0.18639183	    -49.51277927	     14.67500652	     -7.49999987	     -1.36709923	      0.03243432	     -1.62468676	    -18.88523063	    -23.58537255	     12.42525056	     75.16479768	     78.09310983	    -16.30327160	    -24.55699344	     14.65829600	     65.10857734	     67.71273941
      2.00833330	     -4.95404158	     -0.72033805	      2.28883854	      0.40426797	      1.18571142	     -0.08311498	      3.46602212	     -0.99167891	     -8.54331755	      2.77767400	      0.04847956	    -49.50237120	     16.53308439	     -7.49999987	      7.30348975	     -2.83503673	      1.57799623	     10.61114891	      0.18519949	    -49.59499456	     14.55079271	     -7.49999987	     -0.83536880	      0.15647289	     -1.74067294	    -18.55436357	    -23.36998200	     13.48579760	     73.49547089	     78.00869879	    -16.61301815	    -23.86514178	     14.65534805	     63.78621534	     67.23644300
      2.01250000	     -4.90496075	     -1.00551275	      2.09156445	      0.40520237	      1.18874367	     -0.08215428	      3.25151148	     -0.80369140	     -8.59201336	      2.51974402	      0.04397783	    -49.54445091	     16.67869527	     -7.49999987	      7.01026721	     -3.03112087	      1.34316202	     10.73255759	      0.18731847	    -49.63821583	     14.96162183	     -7.49999987	     -0.65441899	      0.54925496	     -1.68828954	    -18.43879723	    -22.99176464	     13.88600745	     71.94925557	     77.88093641	    -16.64733363	    -23.07497224	     14.55671523	     62.46574598	     66.99499846
      2.01666670	     -4.85416835	     -1.36034960	      2.00281564	      0.40712351	      1.19124395	     -0.08323335	      3.10676074	     -0.60932419	     -8.52010614	      2.43014490	      0.04241403	    -49.58846626	     16.92194023	     -7.49999987	      6.83503253	     -3.32039699	      1.13746793	     10.70583030	      0.18685199	    -49.65157863	     14.68939767	     -7.49999987	     -0.41393014	      1.07528658	     -1.94100228	    -17.70200112	    -23.11651029	     15.72783671	     70.07190585	     74.07365362	    -16.59286625	    -22.29531538	     14.86265653	     60.77361603	     65.23159014
      2.02083330	     -4.69716456	     -1.49666201	      1.80791683	      0.40911489	      1.19595833	     -0.08211335	      2.80330230	     -0.51186742	     -8.33309154	      2.21105988	      0.03859027	    -49.58232455	     16.88031767	     -7.49999987	      6.44538679	     -3.61233417	      1.00209420	     10.49426043	      0.18315940	    -49.65707247	     14.11679531	     -7.49999987	     -0.34677465	      1.23493896	     -1.85298045	    -17.37295543	    -22.52210757	     16.09035591	     68.04155813	     74.18952137	    -16.31721617	    -21.56526725	     14.80262906	     59.04732829	     65.06186227
      2.02500000	     -4.64745994	     -1.50258913	      1.78322994	      0.41135296	      1.19857929	     -0.08302186	      2.53588517	     -0.56270011	     -8.03711152	      1.86620275	      0.03257138	    -49.57617176	     17.10739699	     -7.49999987	      6.13593630	     -3.67599327	      0.68316942	     10.27194709	      0.17927930	    -49.66662254	     13.55999861	     -7.49999987	     -0.00030649	      1.29583401	     -2.06028283	    -16.65133889	    -22.29212819	     17.79828392	     65.98421107	     72.06750816	    -16.03334665	    -21.09034118	     15.51537900	     57.21385051	     63.61639069
      2.02916670	     -4.49679909	     -1.55013511	      1.85809927	      0.41325620	      1.20116530	     -0.08222782	      2.14277590	     -0.49229248	     -8.09204550	      1.54328470	      0.02693540	    -49.51088180	     17.11880016	     -7.49999987	      5.69796909	     -3.85068853	      0.55196129	     10.03477044	      0.17513978	    -49.64780205	     12.70110959	     -7.49999987	      0.16035036	      1.33673664	     -2.01005536	    -16.23302692	    -21.90991569	     18.86124359	     63.98865930	     70.89715319	    -15.53239070	    -20.71977048	     16.15340316	     55.48582307	     62.85005800
      2.03333330	     -4.30951943	     -1.65944995	      1.75441686	      0.41166764	      1.20730396	     -0.08058675	      1.92155196	     -0.22693062	     -7.66520837	      1.26629944	      0.02210109	    -49.41182396	     17.13753740	     -7.49999987	      5.46517685	     -4.09871807	      0.31329143	      9.62648450	      0.16801385	    -49.63677887	     12.09205154	     -7.49999987	     -0.06715756	      1.49123309	     -1.73625334	    -15.92420770	    -21.48810037	     19.16432503	     62.42429746	     71.04787818	    -15.09427248	    -20.27738728	     16.20605880	     54.34957442	     62.72983399
      2.03750000	     -4.15855215	     -1.72326877	      1.53298615	      0.41275516	      1.20737319	     -0.07942798	      1.76971100	     -0.05261032	     -7.71761005	      1.19702938	      0.02089210	    -49.30019230	     16.80849439	     -7.49999987	      5.07964512	     -4.29939617	      0.54746264	      9.17264800	      0.16009291	    -49.58483236	     11.98505263	     -7.49999987	      0.02605054	      1.43916320	     -1.72513809	    -14.82723004	    -21.36016384	     21.18506305	     60.14473975	     70.11667725	    -14.76406872	    -20.00290960	     16.77580774	     52.84040449	     61.97732548
      2.04166670	     -4.01764832	     -1.73622753	      1.43536955	      0.41358622	      1.21398887	     -0.07970977	      1.60695787	     -0.06650769	     -7.30148671	      1.10953709	      0.01936508	    -49.10796102	     16.92532168	     -7.49999987	      4.72231527	     -4.39389354	      0.84938907	      8.55247112	      0.14926878	    -49.56042504	     11.71870317	     -7.49999987	     -0.14267176	      1.37629631	     -1.49779162	    -14.39936437	    -20.94181061	     21.73959537	     58.53867392	     70.18557477	    -14.36875395	    -19.65730342	     16.78256309	     51.76035918	     61.76121601
      2.04583330	     -4.02151567	     -1.61620903	      1.45203133	      0.41456204	      1.21954121	     -0.08022497	      1.53376118	     -0.28442525	     -6.72926309	      0.98533391	      0.01719732	    -48.84181244	     17.11331869	     -7.49999987	      4.54990623	     -4.23611684	      1.36805814	      8.03620540	      0.14025824	    -49.52719162	     11.92357596	     -7.49999987	      0.03498625	      1.22961844	     -1.68552152	    -13.40185484	    -20.73083463	     23.73197807	     56.57616373	     70.12124637	    -13.95259911	    -19.40695743	     17.47908608	     50.28948758	     60.94324217
